<svg width="17" height="16" viewBox="0 0 17 16" fill="none" xmlns="http://www.w3.org/2000/svg">
<g id="vuesax/outline/arrow-right">
<g id="arrow-right">
<path id="Vector" d="M10.4563 12.5467C10.3297 12.5467 10.203 12.5001 10.103 12.4001C9.90967 12.2067 9.90967 11.8867 10.103 11.6934L13.7963 8.00008L10.103 4.30674C9.90967 4.11341 9.90967 3.79341 10.103 3.60008C10.2963 3.40674 10.6163 3.40674 10.8097 3.60008L14.8563 7.64674C15.0497 7.84008 15.0497 8.16008 14.8563 8.35341L10.8097 12.4001C10.7097 12.5001 10.583 12.5467 10.4563 12.5467Z" fill="#004993"/>
<path id="Vector_2" d="M14.3899 8.5H3.16992C2.89659 8.5 2.66992 8.27333 2.66992 8C2.66992 7.72667 2.89659 7.5 3.16992 7.5H14.3899C14.6633 7.5 14.8899 7.72667 14.8899 8C14.8899 8.27333 14.6633 8.5 14.3899 8.5Z" fill="#004993"/>
</g>
</g>
</svg>
