<svg width="25" height="25" viewBox="0 0 25 25" fill="none" xmlns="http://www.w3.org/2000/svg">
<path d="M22.9163 23.698H2.08301C1.65592 23.698 1.30176 23.3438 1.30176 22.9167C1.30176 22.4897 1.65592 22.1355 2.08301 22.1355H22.9163C23.3434 22.1355 23.6976 22.4897 23.6976 22.9167C23.6976 23.3438 23.3434 23.698 22.9163 23.698Z" fill="#1A1A1A"/>
<path d="M3.85449 22.9166H2.29199L2.34407 10.3853C2.34407 9.4999 2.75033 8.67701 3.44824 8.13535L10.7399 2.45825C11.7712 1.65617 13.2191 1.65617 14.2607 2.45825L21.5524 8.12492C22.2399 8.66659 22.6566 9.51032 22.6566 10.3853V22.9166H21.0941V10.3957C21.0941 9.99991 20.9066 9.61451 20.5941 9.36451L13.3024 3.69784C12.8337 3.33325 12.1774 3.33325 11.6982 3.69784L4.40657 9.37493C4.09407 9.61452 3.90657 9.99991 3.90657 10.3957L3.85449 22.9166Z" fill="#1A1A1A"/>
<path d="M15.1038 23.6978H9.89551C9.46842 23.6978 9.11426 23.3437 9.11426 22.9166V19.2708C9.11426 17.9791 10.1663 16.927 11.458 16.927H13.5413C14.833 16.927 15.8851 17.9791 15.8851 19.2708V22.9166C15.8851 23.3437 15.5309 23.6978 15.1038 23.6978ZM10.6768 22.1353H14.3226V19.2708C14.3226 18.8437 13.9684 18.4895 13.5413 18.4895H11.458C11.0309 18.4895 10.6768 18.8437 10.6768 19.2708V22.1353Z" fill="#1A1A1A"/>
<path d="M9.89551 15.1041H7.81217C6.81217 15.1041 5.98926 14.2812 5.98926 13.2812V11.7187C5.98926 10.7187 6.81217 9.89575 7.81217 9.89575H9.89551C10.8955 9.89575 11.7184 10.7187 11.7184 11.7187V13.2812C11.7184 14.2812 10.8955 15.1041 9.89551 15.1041ZM7.81217 11.4583C7.66634 11.4583 7.55176 11.5728 7.55176 11.7187V13.2812C7.55176 13.427 7.66634 13.5416 7.81217 13.5416H9.89551C10.0413 13.5416 10.1559 13.427 10.1559 13.2812V11.7187C10.1559 11.5728 10.0413 11.4583 9.89551 11.4583H7.81217Z" fill="#1A1A1A"/>
<path d="M17.1875 15.1041H15.1042C14.1042 15.1041 13.2812 14.2812 13.2812 13.2812V11.7187C13.2812 10.7187 14.1042 9.89575 15.1042 9.89575H17.1875C18.1875 9.89575 19.0104 10.7187 19.0104 11.7187V13.2812C19.0104 14.2812 18.1875 15.1041 17.1875 15.1041ZM15.1042 11.4583C14.9583 11.4583 14.8437 11.5728 14.8437 11.7187V13.2812C14.8437 13.427 14.9583 13.5416 15.1042 13.5416H17.1875C17.3333 13.5416 17.4479 13.427 17.4479 13.2812V11.7187C17.4479 11.5728 17.3333 11.4583 17.1875 11.4583H15.1042Z" fill="#1A1A1A"/>
<path d="M19.7917 8.073C19.3646 8.073 19.0104 7.72926 19.0104 7.30217L18.9896 4.948H15.1875C14.7604 4.948 14.4062 4.59383 14.4062 4.16675C14.4062 3.73966 14.7604 3.3855 15.1875 3.3855H19.7708C20.1979 3.3855 20.5521 3.72924 20.5521 4.15632L20.5833 7.28132C20.5729 7.71882 20.2292 8.073 19.7917 8.073C19.8021 8.073 19.7917 8.073 19.7917 8.073Z" fill="#1A1A1A"/>
</svg>
