<svg width="25" height="25" viewBox="0 0 25 25" fill="none" xmlns="http://www.w3.org/2000/svg">
<path d="M15.6247 23.6978H9.37467C3.71842 23.6978 1.30176 21.2812 1.30176 15.6249V9.37492C1.30176 3.71867 3.71842 1.302 9.37467 1.302H15.6247C21.2809 1.302 23.6976 3.71867 23.6976 9.37492V15.6249C23.6976 21.2812 21.2809 23.6978 15.6247 23.6978ZM9.37467 2.8645C4.57259 2.8645 2.86426 4.57283 2.86426 9.37492V15.6249C2.86426 20.427 4.57259 22.1353 9.37467 22.1353H15.6247C20.4268 22.1353 22.1351 20.427 22.1351 15.6249V9.37492C22.1351 4.57283 20.4268 2.8645 15.6247 2.8645H9.37467Z" fill="#1A1A1A"/>
<path d="M11.083 9.89583C10.8851 9.89583 10.6872 9.82292 10.5309 9.66667C9.79134 8.92708 8.58301 8.92708 7.84342 9.66667C7.54134 9.96875 7.04134 9.96875 6.73926 9.66667C6.43717 9.36458 6.43717 8.86458 6.73926 8.5625C8.08301 7.21875 10.2809 7.21875 11.6351 8.5625C11.9372 8.86458 11.9372 9.36458 11.6351 9.66667C11.4788 9.82292 11.2809 9.89583 11.083 9.89583Z" fill="#1A1A1A"/>
<path d="M13.9163 9.89583C13.7184 9.89583 13.5205 9.82292 13.3643 9.66667C13.0622 9.36458 13.0622 8.86458 13.3643 8.5625C14.708 7.21875 16.9059 7.21875 18.2601 8.5625C18.5622 8.86458 18.5622 9.36458 18.2601 9.66667C17.958 9.96875 17.458 9.96875 17.1559 9.66667C16.4163 8.92708 15.208 8.92708 14.4684 9.66667C14.3226 9.82292 14.1247 9.89583 13.9163 9.89583Z" fill="#1A1A1A"/>
<path d="M16.25 19.2188H8.75C7.80208 19.2188 7.03125 18.4479 7.03125 17.5C7.03125 14.4896 9.47917 12.0312 12.5 12.0312C15.5208 12.0312 17.9688 14.4896 17.9688 17.5C17.9688 18.4479 17.1979 19.2188 16.25 19.2188ZM12.5 13.5938C10.3438 13.5938 8.59375 15.3437 8.59375 17.5C8.59375 17.5833 8.66667 17.6563 8.75 17.6563H16.25C16.3333 17.6563 16.4062 17.5833 16.4062 17.5C16.4062 15.3437 14.6562 13.5938 12.5 13.5938Z" fill="#1A1A1A"/>
</svg>
