<svg width="17" height="16" viewBox="0 0 17 16" fill="none" xmlns="http://www.w3.org/2000/svg">
<g id="Capa_1" clip-path="url(#clip0_125_465)">
<path id="Vector" d="M0 6.48846V6.0971C0.0335476 6.09058 0.0375335 6.0609 0.0471659 6.03677C0.190657 5.67248 0.45937 5.46962 0.855962 5.43375C1.66509 5.36069 2.47422 5.28829 3.28335 5.21622C4.05395 5.14741 4.82488 5.07827 5.59581 5.01271C5.69711 5.00423 5.7476 4.96249 5.78646 4.86954C5.96749 4.43872 6.15715 4.01116 6.34415 3.58263C6.78293 2.57586 7.21971 1.56811 7.66148 0.562651C7.85645 0.118787 8.31017 -0.0958076 8.76058 0.0388846C9.0625 0.128897 9.24652 0.338273 9.36775 0.619072C9.98091 2.03611 10.6004 3.45054 11.2129 4.86758C11.2531 4.96086 11.3026 5.00358 11.4025 5.01206C12.0635 5.0675 12.7242 5.1249 13.3848 5.18426C14.3262 5.26873 15.2675 5.35189 16.2078 5.44321C16.5356 5.47517 16.7672 5.65519 16.914 5.94382C16.9449 6.0048 16.9462 6.07884 17.0003 6.12906V6.4878C16.9107 6.78002 16.7044 6.98189 16.4762 7.17692C15.3658 8.12498 14.264 9.08251 13.1523 10.0289C13.0225 10.1395 12.9889 10.2331 13.0281 10.3978C13.3805 11.8876 13.723 13.3796 14.0677 14.871C14.1049 15.0321 14.1079 15.1936 14.0598 15.354C13.8874 15.929 13.2413 16.1654 12.6956 15.8465C11.3471 15.0579 9.99984 14.267 8.65561 13.4716C8.53903 13.4024 8.45765 13.4073 8.34505 13.4739C7.00481 14.2654 5.66124 15.0517 4.31901 15.8399C3.96792 16.0461 3.61318 16.0643 3.27803 15.823C2.93824 15.5784 2.84756 15.2389 2.94056 14.84C3.28933 13.3437 3.63244 11.8465 3.98386 10.3508C4.01409 10.2217 3.98552 10.1473 3.88554 10.0622C2.75921 9.09914 1.63985 8.12857 0.512847 7.16616C0.288642 6.97472 0.0876888 6.77513 0.000664309 6.48813L0 6.48846Z" fill="#A0E838"/>
</g>
<defs>
<clipPath id="clip0_125_465">
<rect width="17" height="16" fill="white"/>
</clipPath>
</defs>
</svg>
