<svg width="158" height="23" viewBox="0 0 158 23" fill="none" xmlns="http://www.w3.org/2000/svg">
<g id="Capa_1" clip-path="url(#clip0_260_286)">
<path id="Vector" d="M23.1 6.6002C22.9 6.5002 22.8 6.3002 22.6 6.2002L21.5 7.3002C21.6 7.4002 21.8 7.6002 21.9 7.7002L23.1 6.6002Z" fill="#B5B5B5"/>
<path id="Vector_2" d="M0.500195 8.7002L0.200195 9.9002L11.4002 9.4002C11.4002 9.2002 11.3002 9.0002 11.3002 8.8002L0.500195 8.7002Z" fill="#B5B5B5"/>
<path id="Vector_3" d="M11.1996 7.4002L1.59961 5.7002C1.39961 6.1002 1.19961 6.4002 1.09961 6.8002L11.1996 7.9002V7.4002Z" fill="#B5B5B5"/>
<path id="Vector_4" d="M3.4002 3.1001C3.2002 3.4001 2.9002 3.7001 2.7002 4.1001L11.4002 6.6001C11.4002 6.4001 11.5002 6.3001 11.6002 6.1001L3.4002 3.1001Z" fill="#B5B5B5"/>
<path id="Vector_5" d="M5.7998 1.2002C5.4998 1.4002 5.1998 1.6002 4.7998 1.9002L11.7998 5.5002L12.0998 5.2002L5.7998 1.2002Z" fill="#B5B5B5"/>
<path id="Vector_6" d="M8.69961 0.399902C8.49961 0.399902 8.39961 0.399902 8.19961 0.499902C7.99961 0.499902 7.79961 0.599902 7.59961 0.599902L12.6996 4.7999C12.7996 4.6999 12.8996 4.6999 12.9996 4.5999L8.69961 0.399902Z" fill="#B5B5B5"/>
<path id="Vector_7" d="M20.5002 4.5001C20.3002 4.4001 20.2002 4.3001 20.0002 4.1001L19.2002 5.6001C19.3002 5.7001 19.5002 5.8001 19.6002 5.9001L20.5002 4.5001Z" fill="#B5B5B5"/>
<path id="Vector_8" d="M17.9 2.8C17.7 2.7 17.5 2.6 17.4 2.5L17 4.6C17.1 4.6 17.3 4.7 17.4 4.7L17.9 2.8Z" fill="#B5B5B5"/>
<path id="Vector_9" d="M19.2 3.5998C19 3.4998 18.9 3.3998 18.7 3.2998L18 4.9998C18.1 5.0998 18.3 5.0998 18.4 5.1998L19.2 3.5998Z" fill="#B5B5B5"/>
<path id="Vector_10" d="M21.7998 5.5001C21.5998 5.4001 21.4998 5.2001 21.2998 5.1001L20.2998 6.4001C20.3998 6.5001 20.5998 6.6001 20.6998 6.7001L21.7998 5.5001Z" fill="#B5B5B5"/>
<path id="Vector_11" d="M15.1 1.4998C14.9 1.3998 14.7 1.3998 14.5 1.2998L15.1 4.1998H15.4L15.1 1.4998Z" fill="#B5B5B5"/>
<path id="Vector_12" d="M13.4002 0.999805C13.2002 0.899805 12.9002 0.899805 12.7002 0.799805L14.3002 4.2998H14.6002L13.4002 0.999805Z" fill="#B5B5B5"/>
<path id="Vector_13" d="M16.5 2.0999C16.3 1.9999 16.1 1.8999 16 1.8999V4.3999C16.1 4.3999 16.2 4.4999 16.4 4.4999L16.5 2.0999Z" fill="#B5B5B5"/>
<path id="Vector_14" d="M11.4004 0.499902C11.2004 0.499902 10.9004 0.399902 10.7004 0.399902H10.4004L13.4004 4.3999C13.5004 4.3999 13.6004 4.2999 13.7004 4.2999L11.4004 0.499902Z" fill="#B5B5B5"/>
<path id="Vector_15" d="M36.3 4.4998C36.2 4.0998 36.1 3.6998 35.9 3.2998L23.5 9.4998C23.6 9.6998 23.7 9.7998 23.9 9.9998L36.3 4.4998Z" fill="#B5B5B5"/>
<path id="Vector_16" d="M36.9004 7.8C36.9004 7.4 36.8004 7 36.7004 6.6V6.5L24.4004 10.8C24.5004 11 24.6004 11.2 24.7004 11.3L36.9004 7.8Z" fill="#B5B5B5"/>
<g id="Group 13973">
<path id="Vector_17" d="M54.4998 2.2998C60.1998 2.2998 64.3998 6.3998 64.3998 11.8998C64.3998 17.3998 60.1998 21.4998 54.4998 21.4998H46.7998V2.2998H54.4998ZM54.3998 18.7998C58.4998 18.7998 61.1998 15.7998 61.1998 11.8998C61.1998 7.9998 58.4998 4.9998 54.3998 4.9998H49.6998V18.7998H54.3998Z" fill="#B5B5B5"/>
<path id="Vector_18" d="M68.0996 2.2998H81.4996V4.9998H70.9996V10.2998H79.9996V12.9998H70.9996V18.7998H81.7996V21.4998H68.0996V2.2998Z" fill="#B5B5B5"/>
<path id="Vector_19" d="M99.4 21.3998H85.5V2.2998H88.5V18.7998H99.4V21.3998Z" fill="#B5B5B5"/>
<path id="Vector_20" d="M103 15.8C103.9 17.7 105.7 19 108.3 19C110.5 19 112.2 17.9 112.2 16.3C112.2 14.7 110.7 14 107.8 13.1C104.2 11.9 101.3 10.7 101.3 7.3C101.3 3.9 104.6 2 107.8 2C111.3 2 113.6 3.9 114.7 6L112.4 7.6C111.6 6.1 110 4.7 107.8 4.7C106 4.7 104.3 5.6 104.3 7.3C104.3 9 105.9 9.4 108.6 10.4C112.2 11.6 115.2 12.6 115.2 16.3C115.2 20 111.6 21.7 108.3 21.7C104.5 21.7 101.8 19.8 100.7 17.3L103 15.8Z" fill="#B5B5B5"/>
<path id="Vector_21" d="M118.7 14.4998V2.2998H121.6V14.3998C121.6 17.1998 123.6 18.9998 126.7 18.9998C129.8 18.9998 131.8 17.1998 131.8 14.3998V2.2998H134.7V14.4998C134.7 18.8998 131.6 21.6998 126.6 21.6998C121.9 21.6998 118.7 18.8998 118.7 14.4998Z" fill="#B5B5B5"/>
<path id="Vector_22" d="M147.3 2.2998C153 2.2998 157.2 6.3998 157.2 11.8998C157.2 17.3998 153 21.4998 147.3 21.4998H139.6V2.2998H147.3ZM147.3 18.7998C151.4 18.7998 154.1 15.7998 154.1 11.8998C154.1 7.9998 151.4 4.9998 147.3 4.9998H142.6V18.7998H147.3Z" fill="#B5B5B5"/>
<path id="Vector_23" d="M0.700195 18.5C0.800195 18.9 0.900195 19.3 1.1002 19.7L13.5002 13.5C13.4002 13.3 13.3002 13.2 13.1002 13L0.700195 18.5Z" fill="#B5B5B5"/>
<path id="Vector_24" d="M0 11.9998V13.2998L11.9 10.8998C11.8 10.6998 11.7 10.4998 11.7 10.2998L0 11.9998Z" fill="#B5B5B5"/>
<path id="Vector_25" d="M0.0996094 15.2998C0.0996094 15.6998 0.199609 16.0998 0.299609 16.4998V16.5998L12.6996 12.2998C12.5996 12.0998 12.4996 11.8998 12.3996 11.7998L0.0996094 15.2998Z" fill="#B5B5B5"/>
<path id="Vector_26" d="M13.9004 16.3998C14.1004 16.4998 14.2004 16.6998 14.4004 16.7998L15.5004 15.6998L15.1004 15.2998L13.9004 16.3998Z" fill="#B5B5B5"/>
<path id="Vector_27" d="M36.5002 14.3001C36.6002 13.9001 36.7002 13.5001 36.8002 13.1001L25.7002 13.7001C25.7002 13.9001 25.8002 14.1001 25.8002 14.3001H36.5002Z" fill="#B5B5B5"/>
<path id="Vector_28" d="M25.7998 15.7002L35.3998 17.4002C35.5998 17.0002 35.7998 16.7002 35.8998 16.3002L25.7998 15.2002V15.7002Z" fill="#B5B5B5"/>
<path id="Vector_29" d="M33.6 19.9C33.9 19.6 34.1 19.3 34.4 19L25.7 16.5C25.7 16.7 25.6 16.8 25.5 17L33.6 19.9Z" fill="#B5B5B5"/>
<path id="Vector_30" d="M31.2004 21.8001C31.5004 21.6001 31.9004 21.4001 32.2004 21.2001L25.2004 17.6001L24.9004 17.9001L31.2004 21.8001Z" fill="#B5B5B5"/>
<path id="Vector_31" d="M28.2996 22.6998C28.4996 22.6998 28.5996 22.6998 28.7996 22.5998C28.9996 22.5998 29.1996 22.4998 29.3996 22.4998L24.3996 18.2998C24.2996 18.3998 24.1996 18.3998 24.0996 18.4998L28.2996 22.6998Z" fill="#B5B5B5"/>
<path id="Vector_32" d="M36.9996 11.0998V9.7998L25.0996 12.1998C25.1996 12.3998 25.2996 12.5998 25.2996 12.7998L36.9996 11.0998Z" fill="#B5B5B5"/>
<path id="Vector_33" d="M16.5 18.6002C16.7 18.7002 16.8 18.8002 17 19.0002L17.8 17.5002C17.7 17.4002 17.5 17.3002 17.4 17.2002L16.5 18.6002Z" fill="#B5B5B5"/>
<path id="Vector_34" d="M19.0996 20.2999C19.2996 20.3999 19.3996 20.4999 19.5996 20.5999L19.9996 18.4999C19.8996 18.4999 19.6996 18.3999 19.5996 18.3999L19.0996 20.2999Z" fill="#B5B5B5"/>
<path id="Vector_35" d="M17.7998 19.4999C17.9998 19.5999 18.0998 19.6999 18.2998 19.7999L18.9998 18.0999C18.8998 17.9999 18.6998 17.9999 18.5998 17.8999L17.7998 19.4999Z" fill="#B5B5B5"/>
<path id="Vector_36" d="M15.2002 17.5999C15.4002 17.6999 15.5002 17.8999 15.7002 17.9999L16.7002 16.6999C16.6002 16.5999 16.4002 16.4999 16.3002 16.3999L15.2002 17.5999Z" fill="#B5B5B5"/>
<path id="Vector_37" d="M21.8996 21.5999C22.0996 21.6999 22.2996 21.6999 22.4996 21.7999L21.8996 18.8999H21.5996L21.8996 21.5999Z" fill="#B5B5B5"/>
<path id="Vector_38" d="M23.6004 22.0998C23.8004 22.1998 24.1004 22.1998 24.3004 22.2998L22.7004 18.7998H22.4004L23.6004 22.0998Z" fill="#B5B5B5"/>
<path id="Vector_39" d="M20.5 20.9C20.7 21 20.9 21.1 21 21.1V18.6C20.9 18.6 20.8 18.5 20.6 18.5L20.5 20.9Z" fill="#B5B5B5"/>
<path id="Vector_40" d="M25.5998 22.5001C25.7998 22.5001 26.0998 22.6001 26.2998 22.6001H26.5998L23.5998 18.6001C23.4998 18.6001 23.3998 18.7001 23.2998 18.7001L25.5998 22.5001Z" fill="#B5B5B5"/>
<path id="Vector_41" d="M35.6998 0H34.3998L22.5998 8.5L15.7998 13.1L15.2998 13.4L14.5998 13.8L1.9998 21.8L1.2998 23H2.6998L15.0998 14L21.9998 9.4L22.7998 8.8L34.9998 1.2L35.6998 0Z" fill="#B5B5B5"/>
</g>
</g>
<defs>
<clipPath id="clip0_260_286">
<rect width="157.2" height="23" fill="white"/>
</clipPath>
</defs>
</svg>
