<svg width="27" height="24" viewBox="0 0 27 24" fill="none" xmlns="http://www.w3.org/2000/svg">
<g id="vuesax/outline/frame">
<g id="frame">
<path id="Vector" d="M14.0911 11.62C14.0584 11.62 14.0366 11.62 14.004 11.62C13.9496 11.61 13.8734 11.61 13.8081 11.62C10.6514 11.53 8.26758 9.25 8.26758 6.44C8.26758 3.58 10.8038 1.25 13.9169 1.25C17.03 1.25 19.5662 3.58 19.5662 6.44C19.5553 9.25 17.1606 11.53 14.1237 11.62C14.1128 11.62 14.1019 11.62 14.0911 11.62ZM13.9169 2.75C11.7072 2.75 9.90033 4.41 9.90033 6.44C9.90033 8.44 11.5984 10.05 13.7645 10.12C13.8189 10.11 13.9713 10.11 14.1128 10.12C16.2463 10.03 17.9226 8.42 17.9335 6.44C17.9335 4.41 16.1266 2.75 13.9169 2.75Z" fill="#F2F2F2"/>
<path id="Vector_2" d="M14.1023 22.55C11.9688 22.55 9.82445 22.05 8.20258 21.05C6.68957 20.13 5.8623 18.87 5.8623 17.5C5.8623 16.13 6.68957 14.86 8.20258 13.93C11.4681 11.94 16.7582 11.94 20.0019 13.93C21.5041 14.85 22.3422 16.11 22.3422 17.48C22.3422 18.85 21.515 20.12 20.0019 21.05C18.3692 22.05 16.2357 22.55 14.1023 22.55ZM9.10604 15.19C8.06108 15.83 7.49506 16.65 7.49506 17.51C7.49506 18.36 8.07196 19.18 9.10604 19.81C11.8164 21.48 16.3881 21.48 19.0985 19.81C20.1434 19.17 20.7095 18.35 20.7095 17.49C20.7095 16.64 20.1326 15.82 19.0985 15.19C16.3881 13.53 11.8164 13.53 9.10604 15.19Z" fill="#F2F2F2"/>
</g>
</g>
</svg>
