<svg width="159" height="31" viewBox="0 0 159 31" fill="none" xmlns="http://www.w3.org/2000/svg">
<g id="Grupo_390">
<path id="Trazado_601" d="M34.5185 6.5697H1.98988C1.34139 6.59194 0.796648 6.08796 0.774414 5.43946C0.774414 5.43205 0.774414 5.42464 0.774414 5.42094V1.50401C0.818882 0.862925 1.3488 0.362655 1.98988 0.351538H34.5185C35.167 0.329304 35.7118 0.833279 35.734 1.48178C35.734 1.48919 35.734 1.4966 35.734 1.50031V5.41352C35.7229 6.06202 35.1855 6.57711 34.537 6.566C34.5296 6.566 34.5222 6.566 34.5185 6.566V6.5697Z" fill="#004993"/>
<path id="Vector" d="M17.9171 23.5639H17.8652V10.4531L0 19.1578V29.0632C0.0185285 29.9488 0.748551 30.6566 1.63421 30.6492H1.8825C2.19748 30.6492 2.50505 30.5677 2.77186 30.4083L17.8689 23.5787" fill="#004993"/>
<path id="Vector_2" opacity="0.5" d="M35.1892 30.2156L35.2374 30.1674C35.5449 29.8821 35.7228 29.4819 35.7302 29.0594V19.1541L17.8613 10.4531V23.5639H17.9132L24.2388 26.4432L32.9621 30.3601L33.0102 30.4083L33.3067 30.5528C33.466 30.6121 33.6328 30.6455 33.7995 30.6492H33.9959C34.3813 30.6418 34.7593 30.5232 35.0817 30.312C35.1299 30.2638 35.1299 30.2156 35.1818 30.2156H35.1892Z" fill="#004993"/>
<path id="Trazado_604" d="M58.8542 13.9923H54.8742V20.5328C54.8742 21.9002 55.6376 22.3598 56.8642 22.3598C57.2274 22.3968 57.5942 22.3449 57.9351 22.2078V24.1867C57.4868 24.3201 57.0198 24.3719 56.5566 24.3386C54.2628 24.3386 52.5804 23.1231 52.5804 20.6885V13.8403H49.979V12.0134H52.4248V9.57879L54.8705 8.35962V12.0134H59.3062L58.8579 13.9923H58.8542Z" fill="#004993"/>
<path id="Trazado_605" d="M67.7252 14.4479C67.5732 14.4479 67.1137 14.296 66.8061 14.296C65.1238 14.296 63.4414 15.0556 63.4414 17.9498V24.1865H60.9956V12.0133H63.597V14.4479C64.0565 12.621 65.4313 11.8613 67.1137 11.8613C67.4176 11.8613 68.0327 12.0133 68.3366 12.0133L67.7214 14.4479H67.7252Z" fill="#004993"/>
<path id="Trazado_606" d="M78.7424 24.183V22.6599C78.1309 23.7272 77.06 24.4869 74.9181 24.4869C72.1648 24.4869 70.1748 22.8156 70.1748 20.0734V12.0098H72.6206V19.9214C72.6206 21.1406 73.3839 22.508 75.5258 22.508C77.5158 22.508 78.4311 21.1406 78.4311 19.9214V12.0098H80.8769V24.183H78.7424Z" fill="#004993"/>
<path id="Trazado_607" d="M87.3062 24.3349C86.1167 24.4016 84.9346 24.0829 83.9414 23.4233L83.4819 20.9887C84.564 21.8669 85.9129 22.3524 87.3062 22.3598C88.3772 22.3598 89.1405 21.752 89.1405 20.9887C89.1405 20.0771 88.5291 19.6213 87.4581 19.3137C85.0124 18.3984 83.6339 17.3348 83.6339 15.356C83.6339 13.3772 85.3163 11.8578 87.762 11.8578C88.8774 11.8504 89.978 12.1135 90.9749 12.6175L90.5153 14.7483C89.6816 14.2517 88.7329 13.9886 87.762 13.9886C86.6911 13.9886 86.0796 14.5963 86.0796 15.3597C86.0796 16.1194 86.6911 16.4269 87.762 16.8827C90.2078 17.7943 91.5863 18.8616 91.5863 20.9924C91.7382 22.8193 90.2115 24.3386 87.3025 24.3386L87.3062 24.3349Z" fill="#004993"/>
<path id="Trazado_608" d="M101.68 13.9923H97.7042V20.5328C97.7042 21.9002 98.4676 22.3598 99.6905 22.3598C100.054 22.3968 100.424 22.3449 100.761 22.2078V24.1867C100.313 24.3201 99.8461 24.3719 99.3829 24.3386C97.0891 24.3386 95.4067 23.1231 95.4067 20.6885V13.8403H92.9609V12.0134H95.4067V9.57879L97.8525 8.35962V12.0134H102.288L101.68 13.9923Z" fill="#004993"/>
<path id="Trazado_609" d="M118.36 7.44788C117.793 7.15513 117.163 6.99949 116.526 6.99208C114.536 6.99208 113.62 8.20755 113.62 10.3383V11.8614H117.597L117.137 13.9921H113.62V24.1865H111.175V13.8439H109.033V12.017H111.175V10.342C111.175 6.84385 113.165 5.01694 116.377 5.01694C117.215 4.991 118.049 5.14664 118.823 5.47274L118.364 7.45159L118.36 7.44788Z" fill="#004993"/>
<path id="Trazado_610" d="M127.998 24.183V22.6599C127.387 23.7272 126.316 24.4869 124.174 24.4869C121.421 24.4869 119.431 22.8156 119.431 20.0734V12.0098H121.876V19.9214C121.876 21.1406 122.644 22.508 124.782 22.508C126.768 22.508 127.687 21.1406 127.687 19.9214V12.0098H130.133V24.183H127.998Z" fill="#004993"/>
<path id="Trazado_611" d="M141.613 24.1863V16.2747C141.613 15.0555 140.85 13.6881 138.708 13.6881C136.722 13.6881 135.803 15.0555 135.803 16.2747V24.1863H133.357V12.0131H135.499V13.5361C136.11 12.4689 137.181 11.7092 139.323 11.7092C142.076 11.7092 144.066 13.3842 144.066 16.1227V24.1863H141.617H141.613Z" fill="#004993"/>
<path id="Trazado_612" d="M156.299 24.1867V22.8193C155.418 23.9347 154.05 24.561 152.627 24.4943C149.874 24.4943 146.661 22.3635 146.661 18.1057C146.516 14.7224 149.144 11.8616 152.527 11.717C152.66 11.7096 152.794 11.7096 152.931 11.7133C154.135 11.7133 155.31 12.0839 156.296 12.7806V5.01343H158.742V24.183H156.299V24.1867ZM156.148 15.0596C155.362 14.2147 154.239 13.7663 153.087 13.8441C150.945 13.8441 149.107 15.5191 149.107 18.1057C149.107 20.6959 150.941 22.3672 153.087 22.3672C154.284 22.3524 155.41 21.7928 156.148 20.8442V15.0559V15.0596Z" fill="#004993"/>
</g>
</svg>
