<svg width="190" height="36" viewBox="0 0 190 36" fill="none" xmlns="http://www.w3.org/2000/svg">
<g id="logo" clip-path="url(#clip0_31_9574)">
<g id="Grupo_390">
<path id="Trazado_601" d="M41.3157 7.38844H2.38157C1.60538 7.41486 0.95337 6.81603 0.926758 6.04549C0.926758 6.03668 0.926758 6.02787 0.926758 6.02347V1.36936C0.979983 0.607619 1.61425 0.0131964 2.38157 -1.29506e-05H41.3157C42.0919 -0.0264317 42.7439 0.572394 42.7705 1.34294C42.7705 1.35175 42.7705 1.36055 42.7705 1.36496V6.01466C42.7572 6.78521 42.1141 7.39725 41.3379 7.38404C41.329 7.38404 41.3201 7.38404 41.3157 7.38404V7.38844Z" fill="#F9FAFB"/>
<path id="Vector" d="M21.4452 27.5812H21.3832V12.0029L0 22.3459V34.1155C0.0221771 35.1678 0.895954 36.0088 1.95602 36H2.25319C2.6302 36 2.99834 35.9031 3.31769 35.7138L21.3876 27.5988" fill="#F9FAFB"/>
<path id="Vector_2" opacity="0.5" d="M42.1189 35.4848L42.1766 35.4276C42.5447 35.0885 42.7576 34.613 42.7665 34.111V22.3415L21.3789 12.0029V27.5812H21.441L29.0123 31.0024L39.4532 35.6565L39.5109 35.7138L39.8657 35.8855C40.0564 35.956 40.256 35.9956 40.4556 36H40.6907C41.152 35.9912 41.6044 35.8503 41.9903 35.5993C42.048 35.5421 42.048 35.4848 42.1101 35.4848H42.1189Z" fill="#F9FAFB"/>
<path id="Trazado_604" d="M70.4431 16.2079H65.6795V23.9794C65.6795 25.6042 66.5932 26.1502 68.0613 26.1502C68.496 26.1942 68.9351 26.1326 69.3432 25.9696V28.3209C68.8065 28.4794 68.2476 28.5411 67.6932 28.5014C64.9477 28.5014 62.934 27.0572 62.934 24.1644V16.0274H59.8203V13.8566H62.7477V10.9638L65.6751 9.51514V13.8566H70.9843L70.4476 16.2079H70.4431Z" fill="#F9FAFB"/>
<path id="Trazado_605" d="M81.0616 16.7495C80.8797 16.7495 80.3297 16.569 79.9616 16.569C77.9479 16.569 75.9342 17.4716 75.9342 20.9105V28.321H73.0068V13.8567H76.1205V16.7495C76.6705 14.5788 78.316 13.6761 80.3297 13.6761C80.6934 13.6761 81.4297 13.8567 81.7934 13.8567L81.0571 16.7495H81.0616Z" fill="#F9FAFB"/>
<path id="Trazado_606" d="M94.2479 28.3165V26.5068C93.516 27.7749 92.2342 28.6775 89.6705 28.6775C86.375 28.6775 83.9932 26.6917 83.9932 23.4334V13.8522H86.9205V23.2529C86.9205 24.7015 87.8342 26.3262 90.3979 26.3262C92.7797 26.3262 93.8753 24.7015 93.8753 23.2529V13.8522H96.8027V28.3165H94.2479Z" fill="#F9FAFB"/>
<path id="Trazado_607" d="M104.498 28.497C103.074 28.5763 101.66 28.1976 100.471 27.4139L99.9209 24.521C101.216 25.5645 102.831 26.1414 104.498 26.1502C105.78 26.1502 106.694 25.4281 106.694 24.521C106.694 23.4378 105.962 22.8962 104.68 22.5308C101.753 21.4432 100.103 20.1795 100.103 17.8282C100.103 15.477 102.116 13.6717 105.044 13.6717C106.379 13.6629 107.696 13.9755 108.889 14.5743L108.339 17.1061C107.341 16.5161 106.206 16.2035 105.044 16.2035C103.762 16.2035 103.03 16.9256 103.03 17.8326C103.03 18.7353 103.762 19.1008 105.044 19.6423C107.971 20.7255 109.621 21.9936 109.621 24.5254C109.803 26.6962 107.976 28.5014 104.494 28.5014L104.498 28.497Z" fill="#F9FAFB"/>
<path id="Trazado_608" d="M121.703 16.2079H116.944V23.9794C116.944 25.6042 117.858 26.1502 119.321 26.1502C119.756 26.1942 120.2 26.1326 120.603 25.9696V28.3209C120.066 28.4794 119.508 28.5411 118.953 28.5014C116.208 28.5014 114.194 27.0572 114.194 24.1644V16.0274H111.267V13.8566H114.194V10.9638L117.121 9.51514V13.8566H122.431L121.703 16.2079Z" fill="#F9FAFB"/>
<path id="Trazado_609" d="M141.667 8.43192C140.988 8.08407 140.234 7.89914 139.471 7.89034C137.09 7.89034 135.994 9.33456 135.994 11.8664V13.6761H140.753L140.203 16.2079H135.994V28.3209H133.067V16.0317H130.503V13.861H133.067V11.8708C133.067 7.71421 135.448 5.54347 139.294 5.54347C140.296 5.51265 141.294 5.69758 142.221 6.08505L141.671 8.43633L141.667 8.43192Z" fill="#F9FAFB"/>
<path id="Trazado_610" d="M153.204 28.3165V26.5068C152.472 27.7749 151.19 28.6775 148.627 28.6775C145.331 28.6775 142.949 26.6917 142.949 23.4334V13.8522H145.877V23.2529C145.877 24.7015 146.795 26.3262 149.354 26.3262C151.731 26.3262 152.831 24.7015 152.831 23.2529V13.8522H155.759V28.3165H153.204Z" fill="#F9FAFB"/>
<path id="Trazado_611" d="M169.499 28.3209V18.9203C169.499 17.4716 168.586 15.8469 166.022 15.8469C163.645 15.8469 162.545 17.4716 162.545 18.9203V28.3209H159.617V13.8567H162.181V15.6664C162.913 14.3982 164.195 13.4956 166.758 13.4956C170.054 13.4956 172.436 15.4858 172.436 18.7397V28.3209H169.504H169.499Z" fill="#F9FAFB"/>
<path id="Trazado_612" d="M187.078 28.3209V26.6961C186.022 28.0215 184.385 28.7656 182.682 28.6863C179.386 28.6863 175.541 26.1545 175.541 21.0953C175.368 17.0753 178.513 13.676 182.562 13.5043C182.722 13.4955 182.882 13.4955 183.046 13.4999C184.487 13.4999 185.893 13.9402 187.073 14.768V5.53906H190V28.3165H187.078V28.3209ZM186.896 17.4759C185.955 16.472 184.611 15.9393 183.232 16.0317C180.668 16.0317 178.468 18.0219 178.468 21.0953C178.468 24.1731 180.664 26.1589 183.232 26.1589C184.665 26.1413 186.013 25.4764 186.896 24.3492V17.4715V17.4759Z" fill="#F9FAFB"/>
</g>
</g>
<defs>
<clipPath id="clip0_31_9574">
<rect width="190" height="36" fill="white"/>
</clipPath>
</defs>
</svg>
