<svg width="25" height="24" viewBox="0 0 25 24" fill="none" xmlns="http://www.w3.org/2000/svg">
<g id="vuesax/outline/percentage-square">
<g id="percentage-square">
<path id="Vector" d="M15.1533 22.75H9.15332C3.72332 22.75 1.40332 20.43 1.40332 15V9C1.40332 3.57 3.72332 1.25 9.15332 1.25H15.1533C20.5833 1.25 22.9033 3.57 22.9033 9V15C22.9033 20.43 20.5833 22.75 15.1533 22.75ZM9.15332 2.75C4.54332 2.75 2.90332 4.39 2.90332 9V15C2.90332 19.61 4.54332 21.25 9.15332 21.25H15.1533C19.7633 21.25 21.4033 19.61 21.4033 15V9C21.4033 4.39 19.7633 2.75 15.1533 2.75H9.15332Z" fill="#F2F2F2"/>
<path id="Vector_2" d="M8.72308 16.02C8.53308 16.02 8.34309 15.95 8.19309 15.8C7.90309 15.51 7.90309 15.03 8.19309 14.74L14.7431 8.19003C15.0331 7.90003 15.5131 7.90003 15.8031 8.19003C16.0931 8.48003 16.0931 8.96003 15.8031 9.25003L9.25308 15.8C9.10308 15.95 8.91308 16.02 8.72308 16.02Z" fill="#F2F2F2"/>
<path id="Vector_3" d="M9.13333 11.11C8.04333 11.11 7.15332 10.22 7.15332 9.13004C7.15332 8.04004 8.04333 7.15002 9.13333 7.15002C10.2233 7.15002 11.1133 8.04004 11.1133 9.13004C11.1133 10.22 10.2233 11.11 9.13333 11.11ZM9.13333 8.66003C8.87333 8.66003 8.65332 8.87005 8.65332 9.14005C8.65332 9.41005 8.86333 9.62003 9.13333 9.62003C9.40333 9.62003 9.61331 9.41005 9.61331 9.14005C9.61331 8.87005 9.39333 8.66003 9.13333 8.66003Z" fill="#F2F2F2"/>
<path id="Vector_4" d="M15.6733 16.84C14.5833 16.84 13.6934 15.95 13.6934 14.86C13.6934 13.77 14.5833 12.88 15.6733 12.88C16.7633 12.88 17.6534 13.77 17.6534 14.86C17.6534 15.95 16.7633 16.84 15.6733 16.84ZM15.6733 14.39C15.4133 14.39 15.1934 14.6 15.1934 14.87C15.1934 15.14 15.4033 15.35 15.6733 15.35C15.9433 15.35 16.1534 15.14 16.1534 14.87C16.1534 14.6 15.9433 14.39 15.6733 14.39Z" fill="#F2F2F2"/>
</g>
</g>
</svg>
