<svg width="26" height="59" viewBox="0 0 26 59" fill="none" xmlns="http://www.w3.org/2000/svg">
<g id="Capa_1" clip-path="url(#clip0_42_167)">
<path id="Vector" d="M25.2565 28.1427C24.1229 34.5567 18.1196 38.9059 11.6767 38.3391C5.21073 37.7665 0.109647 32.2722 0.0344605 25.7252C-0.0118078 21.3471 -0.0175914 16.9689 0.0344605 12.5908C0.126997 5.62739 5.85849 0.00578801 12.7987 4.47239e-06C19.739 -0.00577907 25.4705 5.59847 25.5977 12.5561C25.6382 14.7423 25.7712 25.1989 25.2507 28.1427H25.2565ZM22.7638 19.2881C22.7638 17.0962 22.7985 14.91 22.758 12.718C22.6481 7.16581 18.2121 2.81659 12.7409 2.84551C7.35642 2.88021 2.96093 7.22365 2.88575 12.6891C2.82213 17.0094 2.82791 21.3297 2.88575 25.65C2.96093 31.1212 7.33329 35.4762 12.7178 35.5225C18.189 35.5688 22.6423 31.2138 22.758 25.6731C22.8043 23.5448 22.7638 21.4107 22.7638 19.2823V19.2881Z" fill="#F9FAFB"/>
<path id="Vector_2" d="M12.7181 47.2168C14.3548 45.557 15.7544 44.1342 17.154 42.7115C17.8365 42.0116 18.5826 41.5374 19.4443 42.3644C20.3003 43.1857 19.9012 43.9491 19.1956 44.6547C17.4721 46.3609 15.7544 48.0728 14.0541 49.7963C13.227 50.6349 12.4462 50.6523 11.6134 49.8079C9.86679 48.0439 6.39666 44.4928 6.39666 44.4928C6.01495 44.059 5.46551 43.0064 6.17689 42.3644C6.93453 41.6242 7.86568 42.2314 8.29945 42.6189C8.29945 42.6189 11.1681 45.5627 12.7239 47.2168H12.7181Z" fill="#F9FAFB"/>
<path id="Vector_3" d="M12.8917 55.0072C14.4244 53.3936 15.8066 51.9477 17.1889 50.496C17.8714 49.7731 18.6406 49.3625 19.4734 50.2069C20.312 51.0513 19.8551 51.8031 19.1611 52.4971C17.4839 54.1628 15.8009 55.8285 14.1468 57.5173C13.285 58.4021 12.4869 58.5236 11.5731 57.5924C9.87852 55.8632 8.15502 54.1512 6.43153 52.4451C5.71437 51.7337 5.35579 50.9645 6.21175 50.1606C7.08507 49.3393 7.82536 49.8483 8.50203 50.5423C9.86695 51.9361 11.2376 53.3242 12.8975 55.0072H12.8917Z" fill="#F9FAFB"/>
<path id="Vector_4" d="M13.9441 9.32874C13.9441 8.55256 13.3149 7.92334 12.5387 7.92334C11.7625 7.92334 11.1333 8.55256 11.1333 9.32874V13.2962C11.1333 14.0724 11.7625 14.7016 12.5387 14.7016C13.3149 14.7016 13.9441 14.0724 13.9441 13.2962V9.32874Z" fill="#F9FAFB"/>
</g>
<defs>
<clipPath id="clip0_42_167">
<rect width="25.65" height="58.2403" fill="white"/>
</clipPath>
</defs>
</svg>
