<svg width="25" height="25" viewBox="0 0 25 25" fill="none" xmlns="http://www.w3.org/2000/svg">
<path d="M14.1358 23.3124C13.8962 23.3124 13.6566 23.2707 13.4275 23.1874C12.6462 22.8957 12.1462 22.1666 12.1462 21.3332V14.6145H9.70871C8.91704 14.6145 8.22953 14.1666 7.90661 13.4478C7.5837 12.7291 7.70869 11.9166 8.22953 11.3228L16.115 2.36449C16.667 1.73949 17.5212 1.52074 18.3025 1.82282C19.0837 2.11449 19.5837 2.84365 19.5837 3.67699V10.3957H22.0212C22.8129 10.3957 23.5004 10.8437 23.8233 11.5624C24.1462 12.2812 24.0212 13.0937 23.5004 13.6874L15.6149 22.6457C15.2295 23.0832 14.6879 23.3124 14.1358 23.3124ZM17.5837 3.2499C17.49 3.2499 17.3754 3.28115 17.2816 3.39574L9.39619 12.3645C9.22952 12.552 9.29205 12.7395 9.3233 12.8124C9.35455 12.8853 9.45871 13.0624 9.70871 13.0624H12.9275C13.3545 13.0624 13.7087 13.4166 13.7087 13.8437V21.3437C13.7087 21.6041 13.8962 21.7082 13.9795 21.7395C14.0629 21.7707 14.2712 21.8228 14.4379 21.6249L22.3233 12.6562C22.4899 12.4687 22.4274 12.2812 22.3962 12.2082C22.3649 12.1353 22.2608 11.9582 22.0108 11.9582H18.792C18.365 11.9582 18.0108 11.6041 18.0108 11.177V3.67699C18.0108 3.41657 17.8233 3.3124 17.7399 3.28115C17.7087 3.26032 17.6462 3.2499 17.5837 3.2499Z" fill="#1A1A1A"/>
<path d="M8.85417 4.948H1.5625C1.13542 4.948 0.78125 4.59383 0.78125 4.16675C0.78125 3.73966 1.13542 3.3855 1.5625 3.3855H8.85417C9.28125 3.3855 9.63542 3.73966 9.63542 4.16675C9.63542 4.59383 9.28125 4.948 8.85417 4.948Z" fill="#1A1A1A"/>
<path d="M7.8125 21.6145H1.5625C1.13542 21.6145 0.78125 21.2603 0.78125 20.8333C0.78125 20.4062 1.13542 20.052 1.5625 20.052H7.8125C8.23958 20.052 8.59375 20.4062 8.59375 20.8333C8.59375 21.2603 8.23958 21.6145 7.8125 21.6145Z" fill="#1A1A1A"/>
<path d="M4.6875 13.2812H1.5625C1.13542 13.2812 0.78125 12.9271 0.78125 12.5C0.78125 12.0729 1.13542 11.7188 1.5625 11.7188H4.6875C5.11458 11.7188 5.46875 12.0729 5.46875 12.5C5.46875 12.9271 5.11458 13.2812 4.6875 13.2812Z" fill="#1A1A1A"/>
</svg>
