<svg width="28" height="24" viewBox="0 0 28 24" fill="none" xmlns="http://www.w3.org/2000/svg">
<g id="vuesax/outline/star">
<g id="star">
<path id="Vector" d="M20.1954 22.6699C19.6185 22.6699 18.8784 22.4999 17.9531 21.9999L14.6985 20.2299C14.3611 20.0499 13.708 20.0499 13.3814 20.2299L10.1159 21.9999C8.18927 23.0499 7.05723 22.6299 6.54564 22.2899C6.04493 21.9499 5.2612 21.0799 5.7728 19.0799L6.54564 16.0099C6.63272 15.6899 6.45856 15.1399 6.19732 14.8999L3.49783 12.4199C2.14809 11.1799 2.25694 10.1199 2.44199 9.59995C2.62703 9.07995 3.21482 8.15995 5.08704 7.86995L8.55936 7.33995C8.88591 7.28995 9.35397 6.96995 9.49548 6.69995L11.4221 3.16995C12.2929 1.55995 13.4359 1.31995 14.0345 1.31995C14.6332 1.31995 15.7761 1.55995 16.6469 3.16995L18.5627 6.68995C18.7151 6.95995 19.1831 7.27995 19.5097 7.32995L22.982 7.85995C24.8651 8.14995 25.4529 9.06995 25.6271 9.58995C25.8012 10.1099 25.9101 11.1699 24.5712 12.4099L21.8717 14.8999C21.6105 15.1399 21.4472 15.6799 21.5234 16.0099L22.2963 19.0799C22.797 21.0799 22.0241 21.9499 21.5234 22.2899C21.2513 22.4699 20.8159 22.6699 20.1954 22.6699ZM14.0345 18.5899C14.5679 18.5899 15.1013 18.7099 15.5258 18.9399L18.7804 20.7099C19.7274 21.2299 20.3261 21.2299 20.5547 21.0799C20.7832 20.9299 20.9465 20.3999 20.707 19.4199L19.9342 16.3499C19.7274 15.5199 20.0648 14.4499 20.7179 13.8399L23.4174 11.3599C23.9508 10.8699 24.1902 10.3899 24.0814 10.0599C23.9617 9.72995 23.4609 9.45995 22.7208 9.34995L19.2484 8.81995C18.4103 8.68995 17.496 8.06995 17.115 7.36995L15.1992 3.84995C14.8509 3.20995 14.4155 2.82995 14.0345 2.82995C13.6536 2.82995 13.2182 3.20995 12.8807 3.84995L10.9541 7.36995C10.5731 8.06995 9.65875 8.68995 8.8206 8.81995L5.35917 9.34995C4.61899 9.45995 4.11828 9.72995 3.99854 10.0599C3.87881 10.3899 4.12916 10.8799 4.66253 11.3599L7.36201 13.8399C8.01511 14.4399 8.35255 15.5199 8.14573 16.3499L7.3729 19.4199C7.12254 20.4099 7.2967 20.9299 7.52529 21.0799C7.75387 21.2299 8.34166 21.2199 9.29955 20.7099L12.5542 18.9399C12.9678 18.7099 13.5012 18.5899 14.0345 18.5899Z" fill="#F9FAFB"/>
</g>
</g>
</svg>
