<svg width="25" height="25" viewBox="0 0 25 25" fill="none" xmlns="http://www.w3.org/2000/svg">
<path id="Vector" d="M0.411057 8.28967H5.60538V24.9813H0.411057V8.28967ZM3.00822 0C4.67115 0 6.01644 1.34731 6.01644 3.01272C6.01644 4.67814 4.67115 6.02545 3.00822 6.02545C1.34529 6.02545 0 4.67814 0 3.01272C0 1.34731 1.34529 0 3.00822 0ZM8.8565 24.9813H14.0321V16.729C14.0321 14.5584 14.4432 12.4439 17.1338 12.4439C19.8244 12.4439 19.8244 14.9326 19.8244 16.8787V25H25V15.8496C25 11.3585 24.0284 7.89671 18.7967 7.89671C16.2743 7.89671 14.5927 9.28144 13.8827 10.5913H13.8079V8.30838H8.83782V25L8.8565 24.9813Z" fill="#3C3C3B"/>
</svg>
