<svg width="25" height="25" viewBox="0 0 25 25" fill="none" xmlns="http://www.w3.org/2000/svg">
<path id="Vector" d="M20.5613 5.83272C20.5613 6.63977 19.9193 7.28173 19.1123 7.28173C18.3052 7.28173 17.6632 6.63977 17.6632 5.83272C17.6632 5.02568 18.3052 4.38371 19.1123 4.38371C19.9193 4.38371 20.5613 5.02568 20.5613 5.83272ZM18.7638 12.3258C18.7638 15.6823 16.0308 18.4153 12.6742 18.4153C9.31768 18.4153 6.58474 15.6823 6.58474 12.3258C6.58474 8.96919 9.31768 6.23624 12.6742 6.23624C16.0308 6.23624 18.7638 8.96919 18.7638 12.3258ZM16.5811 12.3258C16.5811 10.1798 14.8386 8.41893 12.6742 8.41893C10.5099 8.41893 8.76742 10.1614 8.76742 12.3258C8.76742 14.4901 10.5099 16.2326 12.6742 16.2326C14.8386 16.2326 16.5811 14.4901 16.5811 12.3258ZM25 7.42847C25 3.31988 21.6801 0 17.5715 0H7.42847C3.31988 0 0 3.31988 0 7.42847V17.5715C0 21.6801 3.31988 25 7.42847 25H17.5715C21.6801 25 25 21.6801 25 17.5715V7.42847ZM22.5605 17.4615C22.5605 20.2861 20.2678 22.5605 17.4615 22.5605H7.55686C4.73221 22.5605 2.45781 20.2678 2.45781 17.4615V7.55686C2.45781 4.73221 4.75055 2.45781 7.55686 2.45781H17.4615C20.2861 2.45781 22.5605 4.75055 22.5605 7.55686V17.4615Z" fill="#3C3C3B"/>
</svg>
