<svg width="11" height="25" viewBox="0 0 11 25" fill="none" xmlns="http://www.w3.org/2000/svg">
<path id="Vector" fill-rule="evenodd" clip-rule="evenodd" d="M2.42283 12.5936V24.6819C2.42283 24.8503 2.56431 25 2.72347 25H6.96785C7.12701 25 7.26849 24.8503 7.26849 24.6819V12.4064H10.3457C10.5048 12.4064 10.6286 12.2754 10.6463 12.1257L10.9469 8.42066C10.9469 8.23353 10.8232 8.08383 10.6463 8.08383H7.26849V5.46407C7.26849 4.84656 7.74598 4.34132 8.32958 4.34132H10.6994C10.8585 4.34132 11 4.19162 11 4.0232V0.318114C11 0.149701 10.8585 0 10.6994 0H6.70257C4.31511 0 2.42283 2.00225 2.42283 4.49102V8.06512H0.300643C0.141479 8.06512 0 8.21482 0 8.38323V12.0883C0 12.2567 0.141479 12.4064 0.300643 12.4064H2.42283V12.6123V12.5936Z" fill="#3C3C3B"/>
</svg>
