<svg width="206" height="60" viewBox="0 0 206 60" fill="none" xmlns="http://www.w3.org/2000/svg">
<path d="M46.0642 9.78586C45.6802 10.7045 45.0174 13.0153 36.2831 27.4022C27.5488 41.7891 24.2709 45.6216 24.2709 45.6216C24.1456 45.8199 23.9718 45.9817 23.7657 46.095C23.5596 46.2084 23.3292 46.2691 23.0948 46.2691C22.8604 46.2691 22.63 46.2084 22.4238 46.095C22.2177 45.9817 22.0439 45.8199 21.9186 45.6216C21.9186 45.6216 18.5963 41.785 9.90242 27.4022C1.19644 13.0234 0.448712 10.6114 0.12537 9.78586C-0.197972 8.96029 0.0728269 8.10638 1.30557 7.85952C1.66933 7.78262 2.40493 7.60861 3.64576 7.39007C4.91487 9.76563 7.07318 13.5738 10.832 19.7899C18.9196 33.157 21.9995 36.7264 21.9995 36.7264C22.1167 36.9125 22.2783 37.0623 22.4723 37.1675C22.6663 37.2727 22.8806 37.3253 23.0988 37.3253C23.3171 37.3253 23.5313 37.2687 23.7253 37.1634C23.9153 37.0582 24.0769 36.9044 24.1941 36.7183C24.1941 36.7183 27.2497 33.157 35.3616 19.7818C39.1487 13.5374 41.3111 9.74135 42.564 7.37793C43.825 7.59646 44.5687 7.77858 44.8961 7.85142C45.9995 8.09424 46.4482 8.87125 46.0682 9.78991L46.0642 9.78586Z" fill="#89D4F7"/>
<path d="M44.443 3.40348C43.9014 4.7673 43.2668 6.0947 42.5514 7.37758C41.2985 9.741 39.1402 13.533 35.353 19.7815C27.2372 33.1566 24.1937 36.7179 24.1937 36.7179C24.0765 36.9 23.9148 37.0538 23.7249 37.159C23.5349 37.2643 23.3207 37.3169 23.1024 37.3169C22.8842 37.3169 22.67 37.2602 22.48 37.159C22.29 37.0538 22.1284 36.9041 22.0111 36.7179C22.0111 36.7179 18.9313 33.1485 10.8437 19.7815C7.08487 13.5694 4.92657 9.75718 3.65745 7.38163C2.92993 6.10279 2.29537 4.77539 1.75781 3.40348C1.4466 2.63051 1.70931 1.84136 2.84909 1.60259C3.98887 1.36382 9.27147 0 23.1105 0C36.9496 0 42.3372 1.37596 43.3719 1.60259C44.4066 1.82922 44.8148 2.54958 44.4551 3.40348H44.443Z" fill="#2C68F5"/>
<path d="M76.8752 8.08984H57.8223V13.0554H70.1982L57.8223 28.9599V33.5735H76.8752V28.6119H64.5357L76.8752 12.7074V8.09389V8.08984Z" fill="black"/>
<path d="M94.5488 13.4403V16.8478C93.5343 14.456 90.9637 13.0518 88.1183 13.0518C83.1267 13.0518 79.2305 16.7426 79.2305 23.501C79.2305 30.2594 83.1672 34.0271 88.1547 34.0271C90.9637 34.0271 93.5666 32.5823 94.5488 30.2594V33.5293H99.892V13.4403H94.5488ZM89.6663 29.5511C86.6754 29.5511 84.5697 27.3375 84.5697 23.501C84.5697 19.6645 86.6754 17.4832 89.63 17.4832C92.5845 17.4832 94.7266 19.7373 94.7266 23.501C94.7266 27.2646 92.6128 29.5511 89.6663 29.5511Z" fill="black"/>
<path d="M156.842 8.01753C156.773 8.1875 156.696 8.34938 156.607 8.50721C156.454 8.79859 156.187 9.26803 155.718 10.041C155.306 10.7654 154.845 11.4655 154.34 12.1333C154.324 12.1576 154.304 12.1737 154.283 12.1859C154.259 12.198 154.235 12.2061 154.207 12.2061C154.178 12.2061 154.154 12.198 154.13 12.1859C154.106 12.1737 154.085 12.1535 154.073 12.1333C153.568 11.4696 153.107 10.7694 152.695 10.041C152.23 9.27613 151.963 8.80263 151.81 8.50721C151.721 8.34938 151.64 8.18345 151.575 8.01753C151.539 7.9204 151.571 7.82327 151.709 7.79494C153.366 7.53189 155.055 7.53189 156.712 7.79494C156.838 7.82327 156.89 7.91231 156.846 8.01753H156.842Z" fill="#2C68F5"/>
<path d="M116.266 13.0518C113.101 13.0518 110.712 14.6341 109.835 16.7102V13.4403H104.496V40.0773H109.835V30.1541C110.712 32.2302 113.069 33.8814 116.229 33.8814C120.837 33.8814 125.158 30.7126 125.158 23.4686C125.158 16.2246 120.869 13.0558 116.262 13.0558H116.266V13.0518ZM114.718 29.4824C111.767 29.4824 109.661 27.2687 109.661 23.4645C109.661 19.6604 111.767 17.4144 114.75 17.4144C117.733 17.4144 119.81 19.6604 119.81 23.4645C119.81 27.2687 117.741 29.4824 114.714 29.4824H114.718Z" fill="black"/>
<path d="M133.876 15.0585C133.876 13.294 135.388 12.2095 137.881 12.2095C140.375 12.2095 142.024 13.2617 142.841 15.3013L147.933 14.6012C146.951 10.0605 143.229 7.70117 137.712 7.70117C132.195 7.70117 128.464 10.6959 128.464 15.1637C128.464 24.7348 142.594 21.4608 142.663 26.4628C142.699 28.3568 141.046 29.4859 138.306 29.4859C135.565 29.4859 133.629 28.2556 132.857 25.965L127.555 26.6692C128.646 31.3151 132.72 33.9173 138.342 33.9173C144.352 33.9173 148.253 30.8942 148.253 26.2847C148.253 16.6085 133.88 20.4814 133.88 15.0585H133.876Z" fill="black"/>
<path d="M151.555 13.4399V33.5694H156.857V13.4399H151.555Z" fill="black"/>
<path d="M176.044 13.4397V16.6772C175.062 14.2167 172.459 13.124 169.613 13.124C164.594 13.124 160.726 16.5396 160.726 22.8326C160.726 29.1256 164.626 32.5817 169.65 32.5817C172.459 32.5817 175.062 31.4891 176.044 29.0973V30.9994C176.044 35.0787 174.29 36.7379 171.056 36.7379C168.736 36.7379 166.946 35.5765 166.243 33.7432L161.146 34.9047C162.411 38.6319 165.923 40.7485 171.02 40.7485C177.94 40.7485 181.387 37.5797 181.387 30.016V13.4397H176.044ZM171.125 28.6724C168.134 28.6724 166.028 26.5639 166.028 22.8286C166.028 19.0933 168.134 17.0253 171.089 17.0253C174.043 17.0253 176.185 19.2025 176.185 22.8286C176.185 26.4547 174.112 28.6724 171.125 28.6724Z" fill="black"/>
<path d="M197.554 13.0518C194.494 13.0518 192.243 14.456 191.333 16.6738V13.4362H185.994V33.5657H191.333V23.2905C191.333 19.5592 192.562 17.5884 195.658 17.5884C198.754 17.5884 200.015 19.276 200.015 22.9749V33.5657H205.358V22.4811C205.358 16.1477 202.929 13.0518 197.554 13.0518Z" fill="black"/>
<path d="M139.777 56.058V45.022H143.69C144.256 45.022 144.769 45.1393 145.23 45.37C145.691 45.6007 146.054 45.9325 146.325 46.3656C146.596 46.7986 146.729 47.3166 146.729 47.9236C146.729 48.2191 146.681 48.5064 146.588 48.7897C146.495 49.073 146.357 49.3239 146.188 49.5384C146.014 49.7529 145.804 49.9066 145.557 49.9957C145.893 50.0807 146.172 50.2304 146.394 50.4489C146.616 50.6675 146.794 50.9224 146.923 51.2098C147.057 51.4971 147.15 51.7966 147.202 52.1082C147.259 52.4198 147.283 52.7112 147.283 52.9904C147.283 53.5813 147.142 54.1033 146.859 54.5687C146.576 55.0301 146.196 55.3943 145.723 55.6614C145.246 55.9285 144.725 56.058 144.151 56.058H139.773H139.777ZM141.414 49.3886H143.516C143.945 49.3886 144.316 49.2551 144.628 48.9961C144.939 48.733 145.092 48.3728 145.092 47.9155C145.092 47.4259 144.939 47.0616 144.628 46.8148C144.316 46.572 143.949 46.4465 143.516 46.4465H141.414V49.3886ZM141.414 54.6375H143.997C144.333 54.6375 144.64 54.5525 144.915 54.3866C145.189 54.2166 145.408 53.986 145.573 53.6905C145.735 53.3951 145.816 53.0592 145.816 52.6869C145.816 52.3591 145.735 52.0515 145.573 51.7601C145.412 51.4688 145.193 51.234 144.915 51.056C144.64 50.8779 144.333 50.7889 143.997 50.7889H141.414V54.6416V54.6375Z" fill="#01022E"/>
<path d="M153.859 48.1748H155.605L151.293 60H149.555L150.981 56.0583L148.156 48.1748H149.943L151.802 53.8122L153.863 48.1748H153.859Z" fill="#01022E"/>
<path d="M169.298 45.022V46.661H165.786V56.058H164.149V46.661H160.645V45.022H169.298Z" fill="#01022E"/>
<path d="M169.73 56.0582V48.1747H171.367V49.0084C171.637 48.6846 171.977 48.4256 172.373 48.2354C172.773 48.0452 173.202 47.9521 173.662 47.9521C173.957 47.9521 174.248 47.9926 174.535 48.0695L173.881 49.7247C173.674 49.6478 173.472 49.6074 173.266 49.6074C172.919 49.6074 172.603 49.6923 172.312 49.8623C172.021 50.0323 171.791 50.263 171.621 50.5503C171.447 50.8376 171.363 51.1614 171.363 51.5135V56.0541H169.726L169.73 56.0582Z" fill="#01022E"/>
<path d="M175.17 53.1038V48.1787H176.807V52.7032C176.807 53.0553 176.892 53.375 177.066 53.6664C177.239 53.9537 177.47 54.1844 177.757 54.3543C178.044 54.5243 178.363 54.6093 178.711 54.6093C179.058 54.6093 179.381 54.5243 179.668 54.3543C179.955 54.1844 180.182 53.9537 180.351 53.6664C180.521 53.379 180.606 53.0553 180.606 52.7032V48.1787H182.243L182.251 56.0622H180.614L180.606 55.2123C180.339 55.5401 180.004 55.7951 179.608 55.9853C179.208 56.1755 178.779 56.2685 178.327 56.2685C177.745 56.2685 177.215 56.1269 176.738 55.8436C176.261 55.5603 175.881 55.1799 175.598 54.7024C175.315 54.2248 175.174 53.6947 175.174 53.1119V53.1038H175.17Z" fill="#01022E"/>
<path d="M187.191 56.2648C186.467 56.2648 185.808 56.0786 185.21 55.7063C184.616 55.334 184.139 54.8322 183.783 54.2049C183.428 53.5776 183.254 52.8815 183.254 52.1207C183.254 51.542 183.355 51.0038 183.561 50.5019C183.767 50.0001 184.046 49.559 184.406 49.1786C184.766 48.7982 185.182 48.4987 185.663 48.2842C186.14 48.0697 186.649 47.9604 187.191 47.9604C187.914 47.9604 188.573 48.1466 189.171 48.5189C189.769 48.8912 190.242 49.3931 190.598 50.0244C190.953 50.6557 191.131 51.3558 191.131 52.1207C191.131 52.6954 191.03 53.2296 190.824 53.7273C190.618 54.2251 190.335 54.6662 189.979 55.0467C189.62 55.4271 189.203 55.7265 188.726 55.941C188.254 56.1555 187.74 56.2648 187.195 56.2648H187.191ZM187.191 54.6258C187.627 54.6258 188.015 54.5084 188.363 54.2777C188.71 54.0471 188.985 53.7395 189.187 53.3591C189.389 52.9787 189.49 52.5659 189.49 52.1167C189.49 51.6674 189.385 51.2385 189.179 50.854C188.973 50.4696 188.694 50.166 188.351 49.9354C188.003 49.7047 187.619 49.5914 187.195 49.5914C186.77 49.5914 186.374 49.7087 186.027 49.9394C185.679 50.1701 185.404 50.4776 185.202 50.8621C185 51.2466 184.899 51.6634 184.899 52.1167C184.899 52.5699 185.004 53.007 185.214 53.3874C185.424 53.7638 185.703 54.0673 186.051 54.2899C186.398 54.5124 186.782 54.6258 187.195 54.6258H187.191Z" fill="#01022E"/>
<path d="M192.401 56.0582V48.1747H194.037V49.0084C194.308 48.6846 194.648 48.4256 195.044 48.2354C195.444 48.0452 195.872 47.9521 196.333 47.9521C196.628 47.9521 196.919 47.9926 197.206 48.0695L196.551 49.7247C196.345 49.6478 196.143 49.6074 195.937 49.6074C195.589 49.6074 195.274 49.6923 194.983 49.8623C194.692 50.0323 194.462 50.263 194.292 50.5503C194.118 50.8376 194.033 51.1614 194.033 51.5135V56.0541H192.396L192.401 56.0582Z" fill="#01022E"/>
<path d="M203.864 48.1743H205.501V56.0578H203.856L203.791 54.9165C203.561 55.3212 203.25 55.645 202.853 55.8959C202.461 56.1427 201.997 56.2682 201.459 56.2682C200.881 56.2682 200.339 56.1589 199.83 55.9404C199.321 55.7219 198.872 55.4183 198.488 55.0298C198.104 54.6413 197.801 54.1921 197.587 53.6862C197.373 53.1804 197.264 52.634 197.264 52.0513C197.264 51.4685 197.369 50.9586 197.579 50.4649C197.789 49.9671 198.08 49.5341 198.452 49.1618C198.824 48.7894 199.256 48.494 199.745 48.2836C200.234 48.0691 200.764 47.9639 201.326 47.9639C201.887 47.9639 202.405 48.0934 202.841 48.3524C203.278 48.6114 203.642 48.9432 203.933 49.3479L203.864 48.1824V48.1743ZM201.423 54.6778C201.883 54.6778 202.288 54.5644 202.635 54.3338C202.983 54.1071 203.25 53.7955 203.444 53.407C203.634 53.0185 203.731 52.5855 203.731 52.116C203.731 51.6466 203.634 51.2055 203.44 50.817C203.245 50.4285 202.975 50.1209 202.631 49.8902C202.288 49.6595 201.883 49.5462 201.423 49.5462C200.962 49.5462 200.55 49.6636 200.17 49.8943C199.794 50.1249 199.495 50.4366 199.272 50.8251C199.05 51.2136 198.941 51.6466 198.941 52.116C198.941 52.5855 199.054 53.0266 199.285 53.4111C199.511 53.7996 199.814 54.1031 200.19 54.3338C200.566 54.5644 200.974 54.6778 201.423 54.6778Z" fill="#01022E"/>
</svg>
