<?xml version="1.0" encoding="utf-8"?>
<!-- Generator: Adobe Illustrator 27.7.0, SVG Export Plug-In . SVG Version: 6.00 Build 0)  -->
<svg version="1.1" id="a" xmlns="http://www.w3.org/2000/svg" xmlns:xlink="http://www.w3.org/1999/xlink" x="0px" y="0px"
	 viewBox="0 0 1417.3 1417.3" style="enable-background:new 0 0 1417.3 1417.3;" xml:space="preserve">
<style type="text/css">
	.st0{fill:#FEFEFE;}
	.st1{fill:#25D366;}
</style>
<path class="st0" d="M119.6,1298.5c25.1-89.3,48.8-176.1,74.2-262.4c6.5-22,4.8-39.2-6.1-60c-58.7-112-78.1-231.2-59.6-356.4
	c21.8-147.8,90.8-269.6,204.1-366c84.4-71.8,182.2-115.7,292.1-131.9c127.6-18.8,248.9,1.6,362.7,61.9
	c109.5,58,192.8,142.8,249.7,253.3c53.3,103.6,73.7,213.8,61.7,329.2c-12.9,123.7-60.8,233-142.9,327
	c-72.3,82.8-160.7,142-265.4,174.4c-152.7,47.2-301.9,35.8-445.3-36c-15.8-7.9-29.5-9.9-46.6-5.3
	C306.5,1250.7,214.5,1274,119.6,1298.5L119.6,1298.5z M703.5,214.6c-121.8,2.5-234.7,45.9-328.8,135
	c-90,85.1-140.7,190.4-151.7,313.4c-10.1,113.3,17.2,218.3,79.8,313.6c6.1,9.3,6.5,17.2,3.6,27.5c-13.4,45.9-25.6,92.1-39.1,137.9
	c-3.8,12.9-3.1,16.8,11.5,12.8c47.2-12.7,94.7-24.2,141.9-37.1c12-3.3,21.2-2.4,32.1,4.3c107.3,65.3,223.2,88,346.8,65.6
	c113.9-20.7,209.8-75.3,284.2-163.9c105.1-125.1,141.1-269.5,105.1-428.7C1137.8,369.2,937.4,215,703.5,214.6L703.5,214.6z"/>
<path class="st1" d="M703.5,214.6c233.9,0.5,434.3,154.7,485.4,380.3c36,159.2,0,303.6-105.1,428.7
	c-74.4,88.6-170.4,143.3-284.2,163.9c-123.5,22.4-239.5-0.3-346.8-65.6c-11-6.7-20.1-7.5-32.1-4.3c-47.1,12.8-94.7,24.3-141.9,37.1
	c-14.6,3.9-15.3,0-11.5-12.8c13.5-45.8,25.7-92,39.1-137.9c3-10.2,2.5-18.2-3.6-27.5c-62.6-95.3-89.9-200.3-79.8-313.6
	c11-123,61.7-228.3,151.7-313.4C468.8,260.5,581.6,217,703.5,214.6L703.5,214.6z M518.5,428.9c-17-1.6-32.8,0.5-46.2,12.6
	c-50.8,45.6-69.1,101.1-53.9,168.1c13.1,57.8,43.6,106.2,79.7,151.9c82.3,104.2,184.4,179.4,312.8,217.8
	c83.8,25.1,183.9-7.1,199.9-115.5c2.3-15.7-0.6-26-16.3-32.9c-39.2-17.3-78-35.5-116.6-53.9c-14.3-6.8-24.8-4.5-34.2,8.4
	c-14,19.1-28.8,37.5-43.3,56.2c-6.3,8.1-13.2,12-24.2,7.7C688,815,618.8,758.6,570.3,676.9c-8.5-14.3-7.3-24.8,4-36.5
	c13-13.4,24.6-28.2,37-42.2c8.2-9.2,9.6-19.2,4.7-30.5c-17.1-39.8-34.1-79.8-51-119.7c-4.8-11.4-12.9-17.4-25.2-18
	C532.8,429.6,525.6,429.2,518.5,428.9L518.5,428.9z"/>
<path class="st0" d="M518.5,428.9c7.2,0.4,14.3,0.7,21.4,1.1c12.2,0.6,20.4,6.6,25.2,18c16.8,40,33.8,79.9,51,119.7
	c4.9,11.3,3.4,21.2-4.7,30.5c-12.4,14-24,28.8-37,42.2c-11.3,11.7-12.5,22.2-4,36.5C618.8,758.6,688,815,776.2,849.2
	c11,4.2,17.9,0.4,24.2-7.7c14.5-18.7,29.3-37.2,43.3-56.2c9.4-12.8,19.9-15.2,34.2-8.4c38.7,18.4,77.5,36.6,116.6,53.9
	c15.7,6.9,18.6,17.2,16.3,32.9c-16,108.4-116.1,140.6-199.9,115.5c-128.5-38.4-230.5-113.6-312.8-217.8
	c-36.1-45.7-66.6-94.1-79.7-151.9c-15.2-66.9,3.1-122.5,53.9-168C485.7,429.3,501.5,427.3,518.5,428.9L518.5,428.9z"/>
</svg>
